<?xml version="1.0" encoding="utf-8"?>
<!-- Generator: Adobe Illustrator 24.0.0, SVG Export Plug-In . SVG Version: 6.00 Build 0)  -->
<svg version="1.1" id="Layer_1" xmlns="http://www.w3.org/2000/svg" xmlns:xlink="http://www.w3.org/1999/xlink" x="0px" y="0px"
	 viewBox="0 0 250 250" style="enable-background:new 0 0 250 250;" xml:space="preserve">
<style type="text/css">
	.st0{display:none;}
	.st1{display:inline;fill:#0080FF;}
	.st2{display:inline;fill:#ADD8E6;}
	.st3{fill:none;}
	.st4{fill:#0080FF;}
	.st5{fill:#0080FF;}
	.st6{fill:#ADD8E6;}
</style>
<g class="st0">
	<path class="st1" d="M-578.8-12c0-54.6,0-109.3,0-163.9c0.4-0.1,0.4-0.4,0.5-0.7c3-8.8,8.6-12.8,17.9-12.8c51.8,0,103.5,0,155.3,0
		c10.8,0,17.9,7.1,17.9,17.9c0,51.7,0,103.4,0,155.1c0,10.8-7.1,17.9-17.9,17.9c-20.6,0-41.2,0-61.7,0c-31.6,0-63.1,0-94.7,0
		c-8,0-14.3-4.7-16.6-12.2C-578.3-11.2-578.2-11.8-578.8-12z M-398.4-133.2c-56.5,0-112.8,0-169.2,0c0,0.7,0,1.3,0,1.9
		c0,38.2,0,76.5,0,114.7c0,4.7,2.1,6.8,6.8,6.8c51.8,0,103.6,0,155.5,0c4.8,0,6.9-2.1,6.9-7c0-38.2,0-76.3,0-114.5
		C-398.4-131.8-398.4-132.5-398.4-133.2z M-567.5-144.6c56.5,0,112.8,0,169.2,0c0-0.7,0-1.3,0-1.9c0-8.2,0-16.5,0-24.7c0-5-2-7-7-7
		c-51.7,0-103.4,0-155.1,0c-0.6,0-1.1,0-1.7,0c-3,0.2-5.3,2.5-5.4,5.4C-567.6-163.4-567.5-154.1-567.5-144.6z"/>
	<path class="st2" d="M-398.4-133.2c0,0.7,0,1.3,0,2c0,38.2,0,76.3,0,114.5c0,4.9-2,7-6.9,7c-51.8,0-103.6,0-155.5,0
		c-4.8,0-6.8-2.1-6.8-6.8c0-38.2,0-76.5,0-114.7c0-0.6,0-1.2,0-1.9C-511.2-133.2-454.9-133.2-398.4-133.2z M-460.5-110.8
		c0-2.6-1.8-5-4.4-5.5c-2.7-0.6-5.3,0.8-6.5,3.7c-11.1,25.9-22.2,51.7-33.3,77.6c-1.4,3.3-0.3,6.6,2.7,7.9c3,1.3,6.2-0.1,7.6-3.4
		c11.1-25.9,22.2-51.7,33.3-77.6C-460.8-108.9-460.5-109.8-460.5-110.8z M-430.2-71.5c-7.5,6-14.8,11.9-22.1,17.7
		c-2.9,2.3-3.4,5.6-1.4,8.2c2,2.6,5.4,2.9,8.3,0.6c9.1-7.3,18.2-14.5,27.3-21.8c3.4-2.7,3.4-6.7,0-9.4c-9.1-7.3-18.3-14.6-27.4-21.9
		c-2.8-2.2-6.2-1.9-8.2,0.6c-2,2.5-1.5,5.9,1.1,8.1c2.5,2,5,4,7.4,6C-440.2-79.5-435.3-75.6-430.2-71.5z M-535.7-71.5
		c0.8-0.6,1.4-1.1,1.9-1.6c6.8-5.4,13.6-10.9,20.4-16.4c2.6-2.1,3-5.5,1.1-8c-1.9-2.5-5.4-3-8-0.9c-9.4,7.4-18.7,14.9-28,22.4
		c-2.9,2.4-2.9,6.4,0,8.8c9.3,7.5,18.6,15,28,22.4c2.6,2,5.9,1.6,7.9-0.8c2-2.4,1.6-5.8-0.9-8c-1.4-1.2-2.8-2.3-4.2-3.4
		C-523.5-61.7-529.5-66.6-535.7-71.5z"/>
	<path class="st2" d="M-567.5-144.6c0-9.5,0-18.8,0-28.2c0-3,2.4-5.3,5.4-5.4c0.6,0,1.1,0,1.7,0c51.7,0,103.4,0,155.1,0c5,0,7,2,7,7
		c0,8.2,0,16.5,0,24.7c0,0.6,0,1.2,0,1.9C-454.8-144.6-511.1-144.6-567.5-144.6z M-432.5-167c-5.4,0-10.7,0-16.1,0
		c-3.8,0-6.3,2.3-6.4,5.6c0,3.3,2.5,5.6,6.3,5.6c10.8,0,21.6,0,32.3,0c3.7,0,6.3-2.3,6.3-5.7c0-3.3-2.6-5.5-6.2-5.5
		C-421.6-167-427-167-432.5-167z M-550.4-155.7c3,0,5.6-2.5,5.7-5.5c0.1-3-2.4-5.6-5.5-5.7c-3.1-0.1-5.7,2.5-5.7,5.6
		C-555.9-158.3-553.4-155.8-550.4-155.7z M-527.9-155.7c3,0,5.6-2.6,5.6-5.6c0-3-2.5-5.6-5.5-5.6c-3.1,0-5.7,2.6-5.7,5.7
		C-533.4-158.3-530.9-155.7-527.9-155.7z M-499.8-161.3c0-3-2.5-5.6-5.5-5.6c-3,0-5.6,2.5-5.7,5.5c-0.1,3.1,2.5,5.7,5.6,5.7
		C-502.4-155.8-499.8-158.3-499.8-161.3z"/>
	<path class="st1" d="M-460.5-110.8c0,1-0.3,1.8-0.7,2.7c-11.1,25.9-22.2,51.7-33.3,77.6c-1.4,3.3-4.6,4.7-7.6,3.4
		c-3-1.3-4.1-4.5-2.7-7.9c11.1-25.9,22.2-51.7,33.3-77.6c1.3-2.9,3.8-4.4,6.5-3.7C-462.4-115.7-460.5-113.4-460.5-110.8z"/>
	<path class="st1" d="M-430.2-71.5c-5.1-4.1-10-8-14.9-11.9c-2.5-2-5-4-7.4-6c-2.7-2.2-3.2-5.6-1.1-8.1c2-2.5,5.4-2.8,8.2-0.6
		c9.2,7.3,18.3,14.6,27.4,21.9c3.4,2.7,3.3,6.7,0,9.4c-9.1,7.3-18.2,14.6-27.3,21.8c-2.9,2.3-6.3,2-8.3-0.6c-2-2.6-1.5-5.9,1.4-8.2
		C-445-59.7-437.7-65.5-430.2-71.5z"/>
	<path class="st1" d="M-535.7-71.5c6.2,5,12.2,9.8,18.3,14.6c1.4,1.1,2.8,2.2,4.2,3.4c2.5,2.2,2.9,5.6,0.9,8
		c-1.9,2.4-5.3,2.8-7.9,0.8c-9.4-7.4-18.7-14.9-28-22.4c-2.9-2.4-2.9-6.4,0-8.8c9.3-7.5,18.6-15,28-22.4c2.6-2.1,6.1-1.6,8,0.9
		c1.9,2.5,1.5,5.8-1.1,8c-6.8,5.5-13.6,10.9-20.4,16.4C-534.3-72.6-534.9-72.2-535.7-71.5z"/>
	<path class="st1" d="M-432.5-167c5.4,0,10.8,0,16.3,0c3.6,0,6.2,2.3,6.2,5.5c0,3.3-2.5,5.7-6.3,5.7c-10.8,0-21.6,0-32.3,0
		c-3.8,0-6.3-2.3-6.3-5.6c0-3.3,2.6-5.6,6.4-5.6C-443.2-167-437.8-167-432.5-167z"/>
	<path class="st1" d="M-550.4-155.7c-3,0-5.6-2.6-5.6-5.6c0-3.1,2.6-5.7,5.7-5.6c3,0.1,5.5,2.7,5.5,5.7
		C-544.8-158.2-547.3-155.7-550.4-155.7z"/>
	<path class="st1" d="M-527.9-155.7c-3,0-5.6-2.5-5.6-5.5c0-3.1,2.6-5.7,5.7-5.7c3,0,5.6,2.6,5.5,5.6
		C-522.3-158.3-524.8-155.8-527.9-155.7z"/>
	<path class="st1" d="M-499.8-161.3c0,3-2.5,5.6-5.6,5.6c-3.1,0-5.7-2.6-5.6-5.7c0.1-3,2.6-5.5,5.7-5.5
		C-502.3-166.9-499.8-164.4-499.8-161.3z"/>
</g>
<g>
	<path class="st3" d="M118.5,44.9c-0.1-4.5,0-9,0-13.5c0-4.5-0.1-9,0-13.5c-0.1,4.5,0,9,0,13.5C118.4,35.9,118.4,40.4,118.5,44.9z"
		/>
	<path class="st3" d="M29.8,131.6c-4,0-8,0.1-12,0C21.8,131.6,25.8,131.6,29.8,131.6c4,0,8,0.1,12,0
		C37.8,131.6,33.8,131.6,29.8,131.6z"/>
	<path class="st4" d="M186.4,84.5c-9.9-14.8-28.1-20.8-44.1-14.8c-6.8,2.5-12.1,7.1-17.6,12.8c-1.3-1.5-2.2-2.8-3.3-3.8
		c-7.5-7.6-16.5-11.5-27.3-11.1C78.2,68.1,67,76.1,60.6,90.2c-6.4,14.2-4.3,28.1,6.4,39.4c17.2,18.2,35.3,35.6,53,53.2
		c3.1,3.1,6.9,3.1,10.1,0c17.7-17.6,35.4-35.1,52.8-52.9C194.6,117.8,195.9,98.6,186.4,84.5z M172.5,121.3
		c-13.9,14.3-28.2,28.3-42.3,42.4c-1.7,1.7-3.1,3.5-4.8,5.3c-16.6-16.5-32.8-32.2-48.5-48.4c-9.2-9.4-8.2-23.7,1.3-33
		c9.4-9.2,23.3-9.4,32.8-0.5c2.9,2.7,5.7,5.7,8.6,8.5c3.7,3.5,7.1,3.5,10.8-0.1c2.8-2.7,5.5-5.5,8.3-8.2c9.7-9.2,23.8-8.9,33.3,0.6
		C181.5,97.4,181.9,111.7,172.5,121.3z"/>
	<path class="st4" d="M118.4,31.4c0,4.5-0.1,9,0,13.5c0.1,4.3,2.5,6.6,6.6,6.6c4,0,6.4-2.3,6.5-6.3c0.1-9.1,0.1-18.2,0-27.3
		c0-3.9-2.8-6.3-6.6-6.3c-3.8,0-6.4,2.5-6.5,6.4C118.4,22.4,118.4,26.9,118.4,31.4z"/>
	<path class="st4" d="M64.3,176.5c-6.1,5.9-12.1,11.9-18,18c-1.9,2-1.9,4.5-0.7,6.9c1.2,2.4,3.2,3.7,6.5,3.8
		c1.1,0.1,2.5-0.5,3.6-1.6c5.9-5.9,11.9-11.7,17.7-17.8c2.4-2.6,2-6.5-0.5-8.9C70.5,174.6,66.7,174.1,64.3,176.5z"/>
	<path class="st4" d="M187.1,178c-2.4-2.3-6.1-1.9-8.4,0.4c-2.5,2.4-2.9,6.2-0.6,8.7c5.6,5.9,11.4,11.6,17.3,17.3
		c1.9,1.9,4.3,2.1,6.7,0.9c2.5-1.2,3.8-3.2,3.9-6.7c0-0.7-0.4-2.1-1.4-3.1C198.8,189.7,193.1,183.8,187.1,178z"/>
	<path class="st4" d="M53.3,62.7c3.2,3.1,6.9,3.1,9.7,0.2c2.8-2.9,2.8-6.5-0.4-9.7c-5.3-5.4-10.7-10.7-16-16
		c-1.4-1.4-2.9-2.4-5.9-2.4c-2,0.1-4.1,1.6-5.4,4.3C34,42,34.9,44.4,37,46.5C42.4,51.9,47.8,57.4,53.3,62.7z"/>
	<path class="st4" d="M187.5,66.3c1.2,1.9,3.1,2.9,5.5,3.1c1.2-0.1,2.5-0.3,3.4-1.1c0.1-0.1,0.3-0.2,0.4-0.3
		c5.9-5.8,11.8-11.6,17.5-17.6c2.4-2.6,1.9-6.2-0.7-8.6c-2.5-2.3-5.9-2.7-8.4-0.3c-6,5.7-11.8,11.6-17.6,17.5
		c-1.7,1.8-1.8,4.2-0.7,6.4C187.2,65.7,187.3,66,187.5,66.3z"/>
	<path class="st5" d="M186.2,61.9c1.3,2,3.2,3,5.7,3.2c1.3-0.1,2.5-0.4,3.5-1.1c-1,0.8-2.2,1-3.5,1.1
		C189.4,64.9,187.5,63.8,186.2,61.9z"/>
	<path class="st4" d="M48.3,125.1c0-3.6-2.6-6.5-6.3-6.6c-8-0.1-16-0.1-24,0c-3.9,0-6.4,2.7-6.4,6.5c0,3.8,2.4,6.5,6.3,6.6
		c4,0.1,8,0,12,0c4,0,8,0.1,12,0C45.6,131.4,48.2,128.7,48.3,125.1z"/>
	<path class="st4" d="M232.2,121.5c-3.9-0.1-7.8,0-11.7,0c0,0,0,0,0,0c-3.6,0-7.1,0-10.7,0c-0.2,0-0.5,0-0.7,0
		c-3.9,0.2-6.6,2.8-6.5,6.5c0,3.6,2.6,6.3,6.3,6.3c7.8,0.1,15.6,0.1,23.4,0c3.8,0,6.1-2.7,6.1-6.4
		C238.4,124.1,236,121.6,232.2,121.5z"/>
	<path class="st4" d="M127.9,202.6c-3.7,0-6.4,2.6-6.4,6.5c-0.1,3.8,0,7.6,0,11.4c0,3.9-0.1,7.8,0,11.7c0.1,3.8,2.6,6.2,6.3,6.2
		c3.7,0,6.4-2.4,6.4-6.1c0.1-7.8,0.1-15.6,0-23.4C134.2,205.2,131.5,202.7,127.9,202.6z"/>
	<path class="st4" d="M121.5,220.5c0-3.8-0.1-7.6,0-11.4C121.4,212.9,121.5,216.7,121.5,220.5c0,3.9-0.1,7.8,0,11.7
		C121.4,228.3,121.5,224.4,121.5,220.5z"/>
	<path class="st6" d="M138.7,87.4c-2.8,2.7-5.5,5.5-8.3,8.2c-3.7,3.6-7.1,3.6-10.8,0.1c-2.9-2.8-5.6-5.7-8.6-8.5
		c-9.5-8.9-23.3-8.7-32.8,0.5c-9.6,9.3-10.5,23.6-1.3,33c15.7,16.2,31.9,31.9,48.5,48.4c1.7-1.8,3.1-3.7,4.8-5.3
		c14.1-14.1,28.3-28.1,42.3-42.4c9.4-9.6,9-23.9-0.5-33.3C162.5,78.5,148.5,78.2,138.7,87.4z"/>
</g>
</svg>
