<?xml version="1.0" encoding="utf-8"?>
<!-- Generator: Adobe Illustrator 24.0.0, SVG Export Plug-In . SVG Version: 6.00 Build 0)  -->
<svg version="1.1" id="Layer_1" xmlns="http://www.w3.org/2000/svg" xmlns:xlink="http://www.w3.org/1999/xlink" x="0px" y="0px"
	 viewBox="0 0 250 250" style="enable-background:new 0 0 250 250;" xml:space="preserve">
<style type="text/css">
	.st0{fill:#0080FF;}
	.st1{fill:#ADD8E6;}
</style>
<g>
	<path class="st0" d="M29.2,207c0-54.6,0-109.3,0-163.9c0.4-0.1,0.4-0.4,0.5-0.7c3-8.8,8.6-12.8,17.9-12.8c51.8,0,103.5,0,155.3,0
		c10.8,0,17.9,7.1,17.9,17.9c0,51.7,0,103.4,0,155.1c0,10.8-7.1,17.9-17.9,17.9c-20.6,0-41.2,0-61.7,0c-31.6,0-63.1,0-94.7,0
		c-8,0-14.3-4.7-16.6-12.2C29.7,207.8,29.8,207.1,29.2,207z M209.6,85.8c-56.5,0-112.8,0-169.2,0c0,0.7,0,1.3,0,1.9
		c0,38.2,0,76.5,0,114.7c0,4.7,2.1,6.8,6.8,6.8c51.8,0,103.6,0,155.5,0c4.8,0,6.9-2.1,6.9-7c0-38.2,0-76.3,0-114.5
		C209.6,87.1,209.6,86.5,209.6,85.8z M40.4,74.4c56.5,0,112.8,0,169.2,0c0-0.7,0-1.3,0-1.9c0-8.2,0-16.5,0-24.7c0-5-2-7-7-7
		c-51.7,0-103.4,0-155.1,0c-0.6,0-1.1,0-1.7,0c-3,0.2-5.3,2.5-5.4,5.4C40.4,55.6,40.4,64.9,40.4,74.4z"/>
	<path class="st1" d="M209.6,85.8c0,0.7,0,1.3,0,2c0,38.2,0,76.3,0,114.5c0,4.9-2,7-6.9,7c-51.8,0-103.6,0-155.5,0
		c-4.8,0-6.8-2.1-6.8-6.8c0-38.2,0-76.5,0-114.7c0-0.6,0-1.2,0-1.9C96.8,85.8,153.1,85.8,209.6,85.8z M147.4,108.2
		c0-2.6-1.8-5-4.4-5.5c-2.7-0.6-5.3,0.8-6.5,3.7c-11.1,25.9-22.2,51.7-33.3,77.6c-1.4,3.3-0.3,6.6,2.7,7.9c3,1.3,6.2-0.1,7.6-3.4
		c11.1-25.9,22.2-51.7,33.3-77.6C147.1,110,147.5,109.2,147.4,108.2z M177.8,147.5c-7.5,6-14.8,11.9-22.1,17.7
		c-2.9,2.3-3.4,5.6-1.4,8.2c2,2.6,5.4,2.9,8.3,0.6c9.1-7.3,18.2-14.5,27.3-21.8c3.4-2.7,3.4-6.7,0-9.4c-9.1-7.3-18.3-14.6-27.4-21.9
		c-2.8-2.2-6.2-1.9-8.2,0.6c-2,2.5-1.5,5.9,1.1,8.1c2.5,2,5,4,7.4,6C167.8,139.5,172.7,143.4,177.8,147.5z M72.3,147.5
		c0.8-0.6,1.4-1.1,1.9-1.6c6.8-5.4,13.6-10.9,20.4-16.4c2.6-2.1,3-5.5,1.1-8c-1.9-2.5-5.4-3-8-0.9c-9.4,7.4-18.7,14.9-28,22.4
		c-2.9,2.4-2.9,6.4,0,8.8c9.3,7.5,18.6,15,28,22.4c2.6,2,5.9,1.6,7.9-0.8c2-2.4,1.6-5.8-0.9-8c-1.4-1.2-2.8-2.3-4.2-3.4
		C84.5,157.3,78.5,152.4,72.3,147.5z"/>
	<path class="st1" d="M40.4,74.4c0-9.5,0-18.8,0-28.2c0-3,2.4-5.3,5.4-5.4c0.6,0,1.1,0,1.7,0c51.7,0,103.4,0,155.1,0c5,0,7,2,7,7
		c0,8.2,0,16.5,0,24.7c0,0.6,0,1.2,0,1.9C153.2,74.4,96.9,74.4,40.4,74.4z M175.5,52c-5.4,0-10.7,0-16.1,0c-3.8,0-6.3,2.3-6.4,5.6
		c0,3.3,2.5,5.6,6.3,5.6c10.8,0,21.6,0,32.3,0c3.7,0,6.3-2.3,6.3-5.7c0-3.3-2.6-5.5-6.2-5.5C186.4,52,180.9,52,175.5,52z M57.6,63.2
		c3,0,5.6-2.5,5.7-5.5c0.1-3-2.4-5.6-5.5-5.7c-3.1-0.1-5.7,2.5-5.7,5.6C52,60.7,54.6,63.2,57.6,63.2z M80.1,63.2
		c3,0,5.6-2.6,5.6-5.6c0-3-2.5-5.6-5.5-5.6c-3.1,0-5.7,2.6-5.7,5.7C74.5,60.7,77.1,63.3,80.1,63.2z M108.2,57.6c0-3-2.5-5.6-5.5-5.6
		c-3,0-5.6,2.5-5.7,5.5c-0.1,3.1,2.5,5.7,5.6,5.7C105.6,63.2,108.1,60.7,108.2,57.6z"/>
	<path class="st0" d="M147.4,108.2c0,1-0.3,1.8-0.7,2.7c-11.1,25.9-22.2,51.7-33.3,77.6c-1.4,3.3-4.6,4.7-7.6,3.4
		c-3-1.3-4.1-4.5-2.7-7.9c11.1-25.9,22.2-51.7,33.3-77.6c1.3-2.9,3.8-4.4,6.5-3.7C145.6,103.3,147.5,105.6,147.4,108.2z"/>
	<path class="st0" d="M177.8,147.5c-5.1-4.1-10-8-14.9-11.9c-2.5-2-5-4-7.4-6c-2.7-2.2-3.2-5.6-1.1-8.1c2-2.5,5.4-2.8,8.2-0.6
		c9.2,7.3,18.3,14.6,27.4,21.9c3.4,2.7,3.3,6.7,0,9.4c-9.1,7.3-18.2,14.6-27.3,21.8c-2.9,2.3-6.3,2-8.3-0.6c-2-2.6-1.5-5.9,1.4-8.2
		C162.9,159.3,170.2,153.5,177.8,147.5z"/>
	<path class="st0" d="M72.3,147.5c6.2,5,12.2,9.8,18.3,14.6c1.4,1.1,2.8,2.2,4.2,3.4c2.5,2.2,2.9,5.6,0.9,8
		c-1.9,2.4-5.3,2.8-7.9,0.8c-9.4-7.4-18.7-14.9-28-22.4c-2.9-2.4-2.9-6.4,0-8.8c9.3-7.5,18.6-15,28-22.4c2.6-2.1,6.1-1.6,8,0.9
		c1.9,2.5,1.5,5.8-1.1,8c-6.8,5.5-13.6,10.9-20.4,16.4C73.6,146.3,73.1,146.8,72.3,147.5z"/>
	<path class="st0" d="M175.5,52c5.4,0,10.8,0,16.3,0c3.6,0,6.2,2.3,6.2,5.5c0,3.3-2.5,5.7-6.3,5.7c-10.8,0-21.6,0-32.3,0
		c-3.8,0-6.3-2.3-6.3-5.6c0-3.3,2.6-5.6,6.4-5.6C164.8,52,170.2,52,175.5,52z"/>
	<path class="st0" d="M57.6,63.2c-3,0-5.6-2.6-5.6-5.6c0-3.1,2.6-5.7,5.7-5.6c3,0.1,5.5,2.7,5.5,5.7C63.2,60.8,60.6,63.3,57.6,63.2z
		"/>
	<path class="st0" d="M80.1,63.2c-3,0-5.6-2.5-5.6-5.5c0-3.1,2.6-5.7,5.7-5.7c3,0,5.6,2.6,5.5,5.6C85.7,60.7,83.1,63.2,80.1,63.2z"
		/>
	<path class="st0" d="M108.2,57.6c0,3-2.5,5.6-5.6,5.6c-3.1,0-5.7-2.6-5.6-5.7c0.1-3,2.6-5.5,5.7-5.5
		C105.6,52.1,108.2,54.6,108.2,57.6z"/>
</g>
</svg>
