<?xml version="1.0" encoding="utf-8"?>
<!-- Generator: Adobe Illustrator 24.0.0, SVG Export Plug-In . SVG Version: 6.00 Build 0)  -->
<svg version="1.1" id="Layer_1" xmlns="http://www.w3.org/2000/svg" xmlns:xlink="http://www.w3.org/1999/xlink" x="0px" y="0px"
	 viewBox="0 0 250 250" style="enable-background:new 0 0 250 250;" xml:space="preserve">
<style type="text/css">
	.st0{display:none;}
	.st1{display:inline;fill:#0080FF;}
	.st2{display:inline;fill:#ADD8E6;}
	.st3{display:inline;fill:none;}
	.st4{display:inline;fill:#030303;}
	.st5{fill:#0080FF;}
	.st6{fill:#ADD8E6;}
</style>
<g class="st0">
	<path class="st1" d="M-606.8-263.8c0-54.6,0-109.3,0-163.9c0.4-0.1,0.4-0.4,0.5-0.7c3-8.8,8.6-12.8,17.9-12.8
		c51.8,0,103.5,0,155.3,0c10.8,0,17.9,7.1,17.9,17.9c0,51.7,0,103.4,0,155.1c0,10.8-7.1,17.9-17.9,17.9c-20.6,0-41.2,0-61.7,0
		c-31.6,0-63.1,0-94.7,0c-8,0-14.3-4.7-16.6-12.2C-606.3-263-606.2-263.6-606.8-263.8z M-426.4-385c-56.5,0-112.8,0-169.2,0
		c0,0.7,0,1.3,0,1.9c0,38.2,0,76.5,0,114.7c0,4.7,2.1,6.8,6.8,6.8c51.8,0,103.6,0,155.5,0c4.8,0,6.9-2.1,6.9-7
		c0-38.2,0-76.3,0-114.5C-426.4-383.6-426.4-384.2-426.4-385z M-595.6-396.4c56.5,0,112.8,0,169.2,0c0-0.7,0-1.3,0-1.9
		c0-8.2,0-16.5,0-24.7c0-5-2-7-7-7c-51.7,0-103.4,0-155.1,0c-0.6,0-1.1,0-1.7,0c-3,0.2-5.3,2.5-5.4,5.4
		C-595.6-415.2-595.6-405.9-595.6-396.4z"/>
	<path class="st2" d="M-426.4-385c0,0.7,0,1.3,0,2c0,38.2,0,76.3,0,114.5c0,4.9-2,7-6.9,7c-51.8,0-103.6,0-155.5,0
		c-4.8,0-6.8-2.1-6.8-6.8c0-38.2,0-76.5,0-114.7c0-0.6,0-1.2,0-1.9C-539.2-385-482.9-385-426.4-385z M-488.6-362.6
		c0-2.6-1.8-5-4.4-5.5c-2.7-0.6-5.3,0.8-6.5,3.7c-11.1,25.9-22.2,51.7-33.3,77.6c-1.4,3.3-0.3,6.6,2.7,7.9c3,1.3,6.2-0.1,7.6-3.4
		c11.1-25.9,22.2-51.7,33.3-77.6C-488.9-360.7-488.6-361.6-488.6-362.6z M-458.3-323.3c-7.5,6-14.8,11.9-22.1,17.7
		c-2.9,2.3-3.4,5.6-1.4,8.2c2,2.6,5.4,2.9,8.3,0.6c9.1-7.3,18.2-14.5,27.3-21.8c3.4-2.7,3.4-6.7,0-9.4c-9.1-7.3-18.3-14.6-27.4-21.9
		c-2.8-2.2-6.2-1.9-8.2,0.6c-2,2.5-1.5,5.9,1.1,8.1c2.5,2,5,4,7.4,6C-468.2-331.3-463.3-327.4-458.3-323.3z M-563.8-323.3
		c0.8-0.6,1.4-1.1,1.9-1.6c6.8-5.4,13.6-10.9,20.4-16.4c2.6-2.1,3-5.5,1.1-8c-1.9-2.5-5.4-3-8-0.9c-9.4,7.4-18.7,14.9-28,22.4
		c-2.9,2.4-2.9,6.4,0,8.8c9.3,7.5,18.6,15,28,22.4c2.6,2,5.9,1.6,7.9-0.8c2-2.4,1.6-5.8-0.9-8c-1.4-1.2-2.8-2.3-4.2-3.4
		C-551.5-313.5-557.6-318.3-563.8-323.3z"/>
	<path class="st2" d="M-595.6-396.4c0-9.5,0-18.8,0-28.2c0-3,2.4-5.3,5.4-5.4c0.6,0,1.1,0,1.7,0c51.7,0,103.4,0,155.1,0c5,0,7,2,7,7
		c0,8.2,0,16.5,0,24.7c0,0.6,0,1.2,0,1.9C-482.8-396.4-539.1-396.4-595.6-396.4z M-460.5-418.8c-5.4,0-10.7,0-16.1,0
		c-3.8,0-6.3,2.3-6.4,5.6c0,3.3,2.5,5.6,6.3,5.6c10.8,0,21.6,0,32.3,0c3.7,0,6.3-2.3,6.3-5.7c0-3.3-2.6-5.5-6.2-5.5
		C-449.7-418.8-455.1-418.8-460.5-418.8z M-578.4-407.5c3,0,5.6-2.5,5.7-5.5c0.1-3-2.4-5.6-5.5-5.7c-3.1-0.1-5.7,2.5-5.7,5.6
		C-584-410.1-581.5-407.6-578.4-407.5z M-555.9-407.5c3,0,5.6-2.6,5.6-5.6c0-3-2.5-5.6-5.5-5.6c-3.1,0-5.7,2.6-5.7,5.7
		C-561.5-410-559-407.5-555.9-407.5z M-527.9-413.1c0-3-2.5-5.6-5.5-5.6c-3,0-5.6,2.5-5.7,5.5c-0.1,3.1,2.5,5.7,5.6,5.7
		C-530.4-407.5-527.9-410.1-527.9-413.1z"/>
	<path class="st1" d="M-488.6-362.6c0,1-0.3,1.8-0.7,2.7c-11.1,25.9-22.2,51.7-33.3,77.6c-1.4,3.3-4.6,4.7-7.6,3.4
		c-3-1.3-4.1-4.5-2.7-7.9c11.1-25.9,22.2-51.7,33.3-77.6c1.3-2.9,3.8-4.4,6.5-3.7C-490.4-367.5-488.6-365.2-488.6-362.6z"/>
	<path class="st1" d="M-458.3-323.3c-5.1-4.1-10-8-14.9-11.9c-2.5-2-5-4-7.4-6c-2.7-2.2-3.2-5.6-1.1-8.1c2-2.5,5.4-2.8,8.2-0.6
		c9.2,7.3,18.3,14.6,27.4,21.9c3.4,2.7,3.3,6.7,0,9.4c-9.1,7.3-18.2,14.6-27.3,21.8c-2.9,2.3-6.3,2-8.3-0.6c-2-2.6-1.5-5.9,1.4-8.2
		C-473.1-311.4-465.8-317.3-458.3-323.3z"/>
	<path class="st1" d="M-563.8-323.3c6.2,5,12.2,9.8,18.3,14.6c1.4,1.1,2.8,2.2,4.2,3.4c2.5,2.2,2.9,5.6,0.9,8
		c-1.9,2.4-5.3,2.8-7.9,0.8c-9.4-7.4-18.7-14.9-28-22.4c-2.9-2.4-2.9-6.4,0-8.8c9.3-7.5,18.6-15,28-22.4c2.6-2.1,6.1-1.6,8,0.9
		c1.9,2.5,1.5,5.8-1.1,8c-6.8,5.5-13.6,10.9-20.4,16.4C-562.4-324.4-563-324-563.8-323.3z"/>
	<path class="st1" d="M-460.5-418.8c5.4,0,10.8,0,16.3,0c3.6,0,6.2,2.3,6.2,5.5c0,3.3-2.5,5.7-6.3,5.7c-10.8,0-21.6,0-32.3,0
		c-3.8,0-6.3-2.3-6.3-5.6c0-3.3,2.6-5.6,6.4-5.6C-471.2-418.8-465.9-418.8-460.5-418.8z"/>
	<path class="st1" d="M-578.4-407.5c-3,0-5.6-2.6-5.6-5.6c0-3.1,2.6-5.7,5.7-5.6c3,0.1,5.5,2.7,5.5,5.7
		C-572.8-410-575.4-407.5-578.4-407.5z"/>
	<path class="st1" d="M-555.9-407.5c-3,0-5.6-2.5-5.6-5.5c0-3.1,2.6-5.7,5.7-5.7c3,0,5.6,2.6,5.5,5.6
		C-550.3-410.1-552.9-407.5-555.9-407.5z"/>
	<path class="st1" d="M-527.9-413.1c0,3-2.5,5.6-5.6,5.6c-3.1,0-5.7-2.6-5.6-5.7c0.1-3,2.6-5.5,5.7-5.5
		C-530.4-418.7-527.9-416.2-527.9-413.1z"/>
</g>
<g class="st0">
	<path class="st3" d="M-232.4-425.9c-0.1-4.5,0-9,0-13.5c0-4.5-0.1-9,0-13.5c-0.1,4.5,0,9,0,13.5
		C-232.4-434.9-232.4-430.4-232.4-425.9z"/>
	<path class="st3" d="M-321-339.2c-4,0-8,0.1-12,0C-329-339.1-325-339.2-321-339.2c4,0,8,0.1,12,0C-313-339.1-317-339.2-321-339.2z"
		/>
	<path class="st1" d="M-164.4-386.3c-9.9-14.8-28.1-20.8-44.1-14.8c-6.8,2.5-12.1,7.1-17.6,12.8c-1.3-1.5-2.2-2.8-3.3-3.8
		c-7.5-7.6-16.5-11.5-27.3-11.1c-15.9,0.6-27.1,8.6-33.5,22.6c-6.4,14.2-4.4,28.1,6.4,39.4c17.2,18.2,35.3,35.6,53,53.2
		c3.1,3.1,6.9,3.1,10.1,0c17.7-17.6,35.4-35.1,52.8-52.9C-156.2-353-154.9-372.2-164.4-386.3z M-178.3-349.4
		c-13.9,14.3-28.2,28.3-42.3,42.4c-1.7,1.7-3.1,3.5-4.8,5.3c-16.6-16.5-32.8-32.2-48.5-48.4c-9.2-9.4-8.2-23.7,1.3-33
		c9.4-9.2,23.3-9.4,32.8-0.5c2.9,2.7,5.7,5.7,8.6,8.5c3.7,3.5,7.1,3.5,10.8-0.1c2.8-2.7,5.5-5.5,8.3-8.2c9.7-9.2,23.8-8.9,33.3,0.6
		C-169.3-373.3-168.9-359.1-178.3-349.4z"/>
	<path class="st1" d="M-232.4-439.4c0,4.5-0.1,9,0,13.5c0.1,4.3,2.5,6.6,6.6,6.6c4,0,6.4-2.3,6.5-6.3c0.1-9.1,0.1-18.2,0-27.3
		c0-3.9-2.8-6.3-6.6-6.3c-3.8,0-6.4,2.5-6.5,6.4C-232.4-448.3-232.4-443.8-232.4-439.4z"/>
	<path class="st1" d="M-286.5-294.3c-6.1,5.9-12.1,11.9-18,18c-1.9,2-1.9,4.5-0.7,6.9c1.2,2.4,3.2,3.7,6.5,3.8
		c1.1,0.1,2.5-0.5,3.6-1.6c5.9-5.9,11.9-11.7,17.7-17.8c2.4-2.6,2-6.5-0.5-8.9C-280.3-296.2-284.1-296.6-286.5-294.3z"/>
	<path class="st1" d="M-163.7-292.7c-2.4-2.3-6.1-1.9-8.4,0.4c-2.5,2.4-2.9,6.2-0.6,8.7c5.6,5.9,11.4,11.6,17.3,17.3
		c1.9,1.9,4.3,2.1,6.7,0.9c2.5-1.2,3.8-3.2,3.9-6.7c0-0.7-0.4-2.1-1.4-3.1C-152-281.1-157.8-287-163.7-292.7z"/>
	<path class="st1" d="M-297.5-408.1c3.2,3.1,6.9,3.1,9.7,0.2c2.8-2.9,2.8-6.5-0.4-9.7c-5.3-5.4-10.7-10.7-16-16
		c-1.4-1.4-2.9-2.4-5.9-2.4c-2,0.1-4.1,1.6-5.4,4.3c-1.3,2.9-0.4,5.3,1.6,7.4C-308.4-418.9-303-413.4-297.5-408.1z"/>
	<path class="st1" d="M-163.3-404.5c1.2,1.9,3.1,2.9,5.5,3.1c1.2-0.1,2.5-0.3,3.4-1.1c0.1-0.1,0.3-0.2,0.4-0.3
		c5.9-5.8,11.8-11.6,17.5-17.6c2.4-2.6,1.9-6.2-0.7-8.6c-2.5-2.3-5.9-2.7-8.4-0.3c-6,5.7-11.8,11.6-17.6,17.5
		c-1.7,1.8-1.8,4.2-0.7,6.4C-163.7-405-163.5-404.8-163.3-404.5z"/>
	<path class="st4" d="M-164.6-408.9c1.3,2,3.2,3,5.7,3.2c1.3-0.1,2.5-0.4,3.5-1.1c-1,0.8-2.2,1-3.5,1.1
		C-161.4-405.9-163.3-407-164.6-408.9z"/>
	<path class="st1" d="M-302.5-345.7c0-3.6-2.6-6.5-6.3-6.6c-8-0.1-16-0.1-24,0c-3.9,0-6.4,2.7-6.4,6.5c0,3.8,2.4,6.5,6.3,6.6
		c4,0.1,8,0,12,0c4,0,8,0.1,12,0C-305.2-339.3-302.6-342-302.5-345.7z"/>
	<path class="st1" d="M-118.6-349.3c-3.9-0.1-7.8,0-11.7,0c0,0,0,0,0,0c-3.6,0-7.1,0-10.7,0c-0.2,0-0.5,0-0.7,0
		c-3.9,0.2-6.6,2.8-6.5,6.5c0,3.6,2.6,6.3,6.3,6.3c7.8,0.1,15.6,0.1,23.4,0c3.8-0.1,6.1-2.7,6.1-6.4
		C-112.4-346.7-114.8-349.2-118.6-349.3z"/>
	<path class="st1" d="M-222.9-268.2c-3.7,0-6.4,2.6-6.4,6.5c-0.1,3.8,0,7.6,0,11.4c0,3.9-0.1,7.8,0,11.7c0.1,3.8,2.6,6.2,6.3,6.2
		c3.7,0,6.4-2.4,6.4-6.1c0.1-7.8,0.1-15.6,0-23.4C-216.6-265.6-219.3-268.1-222.9-268.2z"/>
	<path class="st1" d="M-229.3-250.3c0-3.8-0.1-7.6,0-11.4C-229.4-257.8-229.4-254.1-229.3-250.3c0,3.9-0.1,7.8,0,11.7
		C-229.4-242.5-229.3-246.4-229.3-250.3z"/>
	<path class="st2" d="M-212.1-383.4c-2.8,2.7-5.5,5.5-8.3,8.2c-3.7,3.6-7.1,3.6-10.8,0.1c-2.9-2.8-5.6-5.7-8.6-8.5
		c-9.5-8.9-23.3-8.7-32.8,0.5c-9.6,9.3-10.5,23.6-1.3,33c15.7,16.2,31.9,31.9,48.5,48.4c1.7-1.8,3.1-3.7,4.8-5.3
		c14.1-14.1,28.3-28.1,42.3-42.4c9.4-9.6,9-23.9-0.5-33.3C-188.3-392.3-202.3-392.6-212.1-383.4z"/>
</g>
<g>
	<path class="st5" d="M29.2,207c0-54.6,0-109.3,0-163.9c0.4-0.1,0.4-0.4,0.5-0.7c3-8.8,8.6-12.8,17.9-12.8c51.8,0,103.5,0,155.3,0
		c10.8,0,17.9,7.1,17.9,17.9c0,51.7,0,103.4,0,155.1c0,10.8-7.1,17.9-17.9,17.9c-20.6,0-41.2,0-61.7,0c-31.6,0-63.1,0-94.7,0
		c-8,0-14.3-4.7-16.6-12.2C29.7,207.8,29.8,207.1,29.2,207z M209.6,85.8c-56.5,0-112.8,0-169.2,0c0,0.7,0,1.3,0,1.9
		c0,38.2,0,76.5,0,114.7c0,4.7,2.1,6.8,6.8,6.8c51.8,0,103.6,0,155.5,0c4.8,0,6.9-2.1,6.9-7c0-38.2,0-76.3,0-114.5
		C209.6,87.1,209.6,86.5,209.6,85.8z M40.4,74.4c56.5,0,112.8,0,169.2,0c0-0.7,0-1.3,0-1.9c0-8.2,0-16.5,0-24.7c0-5-2-7-7-7
		c-51.7,0-103.4,0-155.1,0c-0.6,0-1.1,0-1.7,0c-3,0.2-5.3,2.5-5.4,5.4C40.4,55.6,40.4,64.9,40.4,74.4z"/>
	<path class="st6" d="M209.6,85.8c0,0.7,0,1.3,0,2c0,38.2,0,76.3,0,114.5c0,4.9-2,7-6.9,7c-51.8,0-103.6,0-155.5,0
		c-4.8,0-6.8-2.1-6.8-6.8c0-38.2,0-76.5,0-114.7c0-0.6,0-1.2,0-1.9C96.8,85.8,153.1,85.8,209.6,85.8z"/>
	<path class="st6" d="M40.4,74.4c0-9.5,0-18.8,0-28.2c0-3,2.4-5.3,5.4-5.4c0.6,0,1.1,0,1.7,0c51.7,0,103.4,0,155.1,0c5,0,7,2,7,7
		c0,8.2,0,16.5,0,24.7c0,0.6,0,1.2,0,1.9C153.2,74.4,96.9,74.4,40.4,74.4z M175.5,52c-5.4,0-10.7,0-16.1,0c-3.8,0-6.3,2.3-6.4,5.6
		c0,3.3,2.5,5.6,6.3,5.6c10.8,0,21.6,0,32.3,0c3.7,0,6.3-2.3,6.3-5.7c0-3.3-2.6-5.5-6.2-5.5C186.4,52,180.9,52,175.5,52z M57.6,63.2
		c3,0,5.6-2.5,5.7-5.5c0.1-3-2.4-5.6-5.5-5.7c-3.1-0.1-5.7,2.5-5.7,5.6C52,60.7,54.6,63.2,57.6,63.2z M80.1,63.2
		c3,0,5.6-2.6,5.6-5.6c0-3-2.5-5.6-5.5-5.6c-3.1,0-5.7,2.6-5.7,5.7C74.5,60.7,77.1,63.3,80.1,63.2z M108.2,57.6c0-3-2.5-5.6-5.5-5.6
		c-3,0-5.6,2.5-5.7,5.5c-0.1,3.1,2.5,5.7,5.6,5.7C105.6,63.2,108.1,60.7,108.2,57.6z"/>
	<path class="st5" d="M175.5,52c5.4,0,10.8,0,16.3,0c3.6,0,6.2,2.3,6.2,5.5c0,3.3-2.5,5.7-6.3,5.7c-10.8,0-21.6,0-32.3,0
		c-3.8,0-6.3-2.3-6.3-5.6c0-3.3,2.6-5.6,6.4-5.6C164.8,52,170.2,52,175.5,52z"/>
	<path class="st5" d="M86.1,111.2c5.4,0,30.8,0,36.3,0c3.6,0,6.2,2.3,6.2,5.5c0,3.3-2.5,5.7-6.3,5.7c-10.8,0-41.6,0-52.3,0
		c-3.8,0-6.3-2.3-6.3-5.6c0-3.3,2.6-5.6,6.4-5.6C75.4,111.1,80.7,111.2,86.1,111.2z"/>
	<path class="st5" d="M86.1,139.2c5.4,0,80.8,0,86.3,0c3.6,0,6.2,2.3,6.2,5.5c0,3.3-2.5,5.7-6.3,5.7c-10.8,0-91.6,0-102.3,0
		c-3.8,0-6.3-2.3-6.3-5.6c0-3.3,2.6-5.6,6.4-5.6C75.4,139.2,80.7,139.2,86.1,139.2z"/>
	<path class="st5" d="M86.1,167.3c5.4,0,80.8,0,86.3,0c3.6,0,6.2,2.3,6.2,5.5c0,3.3-2.5,5.7-6.3,5.7c-10.8,0-91.6,0-102.3,0
		c-3.8,0-6.3-2.3-6.3-5.6c0-3.3,2.6-5.6,6.4-5.6C75.4,167.3,80.7,167.3,86.1,167.3z"/>
	<path class="st5" d="M57.6,63.2c-3,0-5.6-2.6-5.6-5.6c0-3.1,2.6-5.7,5.7-5.6c3,0.1,5.5,2.7,5.5,5.7C63.2,60.8,60.6,63.3,57.6,63.2z
		"/>
	<path class="st5" d="M80.1,63.2c-3,0-5.6-2.5-5.6-5.5c0-3.1,2.6-5.7,5.7-5.7c3,0,5.6,2.6,5.5,5.6C85.7,60.7,83.1,63.2,80.1,63.2z"
		/>
	<path class="st5" d="M108.2,57.6c0,3-2.5,5.6-5.6,5.6c-3.1,0-5.7-2.6-5.6-5.7c0.1-3,2.6-5.5,5.7-5.5
		C105.6,52.1,108.2,54.6,108.2,57.6z"/>
</g>
</svg>
